<mxfile host="app.diagrams.net" modified="2024-03-09T12:46:24.641Z" agent="Mozilla/5.0 (Windows NT 10.0; Win64; x64) AppleWebKit/537.36 (KHTML, like Gecko) Chrome/122.0.0.0 Safari/537.36 Edg/122.0.0.0" etag="V98HSSsJ9Ja09ovnEmc9" version="24.0.2" type="device">
  <diagram id="C5RBs43oDa-KdzZeNtuy" name="Page-1">
    <mxGraphModel dx="786" dy="505" grid="1" gridSize="10" guides="1" tooltips="1" connect="1" arrows="1" fold="1" page="1" pageScale="1" pageWidth="827" pageHeight="1169" math="0" shadow="0">
      <root>
        <mxCell id="WIyWlLk6GJQsqaUBKTNV-0" />
        <mxCell id="WIyWlLk6GJQsqaUBKTNV-1" parent="WIyWlLk6GJQsqaUBKTNV-0" />
        <mxCell id="NH6wcKdzHSbvaEYoX5p9-4" value="" style="edgeStyle=orthogonalEdgeStyle;rounded=0;orthogonalLoop=1;jettySize=auto;html=1;" edge="1" parent="WIyWlLk6GJQsqaUBKTNV-1" source="NH6wcKdzHSbvaEYoX5p9-0" target="NH6wcKdzHSbvaEYoX5p9-1">
          <mxGeometry relative="1" as="geometry" />
        </mxCell>
        <mxCell id="NH6wcKdzHSbvaEYoX5p9-0" value="AddToTail&lt;div&gt;Начало&lt;/div&gt;" style="strokeWidth=2;html=1;shape=mxgraph.flowchart.terminator;whiteSpace=wrap;" vertex="1" parent="WIyWlLk6GJQsqaUBKTNV-1">
          <mxGeometry x="30" y="20" width="220" height="60" as="geometry" />
        </mxCell>
        <mxCell id="NH6wcKdzHSbvaEYoX5p9-18" style="edgeStyle=orthogonalEdgeStyle;rounded=0;orthogonalLoop=1;jettySize=auto;html=1;" edge="1" parent="WIyWlLk6GJQsqaUBKTNV-1" source="NH6wcKdzHSbvaEYoX5p9-1" target="NH6wcKdzHSbvaEYoX5p9-7">
          <mxGeometry relative="1" as="geometry" />
        </mxCell>
        <mxCell id="NH6wcKdzHSbvaEYoX5p9-1" value="NewNode = результат вызова функции CreateNode" style="rounded=0;whiteSpace=wrap;html=1;" vertex="1" parent="WIyWlLk6GJQsqaUBKTNV-1">
          <mxGeometry x="30" y="120" width="220" height="60" as="geometry" />
        </mxCell>
        <mxCell id="NH6wcKdzHSbvaEYoX5p9-2" value="" style="endArrow=none;dashed=1;html=1;rounded=0;exitX=1;exitY=0.5;exitDx=0;exitDy=0;exitPerimeter=0;" edge="1" parent="WIyWlLk6GJQsqaUBKTNV-1" target="NH6wcKdzHSbvaEYoX5p9-3">
          <mxGeometry width="50" height="50" relative="1" as="geometry">
            <mxPoint x="250" y="50" as="sourcePoint" />
            <mxPoint x="300" y="50" as="targetPoint" />
          </mxGeometry>
        </mxCell>
        <mxCell id="NH6wcKdzHSbvaEYoX5p9-3" value="Значение переменных Head и Data&lt;div&gt;передано из&amp;nbsp;CreateListWithArray&lt;/div&gt;" style="strokeWidth=2;html=1;shape=mxgraph.flowchart.annotation_1;align=left;pointerEvents=1;" vertex="1" parent="WIyWlLk6GJQsqaUBKTNV-1">
          <mxGeometry x="300" y="10" width="25" height="80" as="geometry" />
        </mxCell>
        <mxCell id="NH6wcKdzHSbvaEYoX5p9-5" value="" style="edgeStyle=orthogonalEdgeStyle;rounded=0;orthogonalLoop=1;jettySize=auto;html=1;" edge="1" parent="WIyWlLk6GJQsqaUBKTNV-1" source="NH6wcKdzHSbvaEYoX5p9-7" target="NH6wcKdzHSbvaEYoX5p9-9">
          <mxGeometry relative="1" as="geometry" />
        </mxCell>
        <mxCell id="NH6wcKdzHSbvaEYoX5p9-6" value="" style="edgeStyle=orthogonalEdgeStyle;rounded=0;orthogonalLoop=1;jettySize=auto;html=1;" edge="1" parent="WIyWlLk6GJQsqaUBKTNV-1" source="NH6wcKdzHSbvaEYoX5p9-7" target="NH6wcKdzHSbvaEYoX5p9-12">
          <mxGeometry relative="1" as="geometry">
            <Array as="points">
              <mxPoint x="410" y="240" />
            </Array>
          </mxGeometry>
        </mxCell>
        <mxCell id="NH6wcKdzHSbvaEYoX5p9-7" value="Head = nil" style="strokeWidth=2;html=1;shape=mxgraph.flowchart.decision;whiteSpace=wrap;" vertex="1" parent="WIyWlLk6GJQsqaUBKTNV-1">
          <mxGeometry x="30" y="210" width="220" height="60" as="geometry" />
        </mxCell>
        <mxCell id="NH6wcKdzHSbvaEYoX5p9-20" value="" style="edgeStyle=orthogonalEdgeStyle;rounded=0;orthogonalLoop=1;jettySize=auto;html=1;" edge="1" parent="WIyWlLk6GJQsqaUBKTNV-1" source="NH6wcKdzHSbvaEYoX5p9-9">
          <mxGeometry relative="1" as="geometry">
            <mxPoint x="140" y="470" as="targetPoint" />
          </mxGeometry>
        </mxCell>
        <mxCell id="NH6wcKdzHSbvaEYoX5p9-9" value="&lt;div&gt;Head = NewNode&lt;/div&gt;&lt;div&gt;&amp;nbsp; &amp;nbsp;Head^.Prev = Head&lt;/div&gt;&lt;div&gt;&amp;nbsp; &amp;nbsp;Head^.Next = Head&lt;/div&gt;" style="rounded=0;whiteSpace=wrap;html=1;" vertex="1" parent="WIyWlLk6GJQsqaUBKTNV-1">
          <mxGeometry x="30" y="300" width="220" height="60" as="geometry" />
        </mxCell>
        <mxCell id="NH6wcKdzHSbvaEYoX5p9-10" value="Да" style="text;html=1;align=center;verticalAlign=middle;whiteSpace=wrap;rounded=0;" vertex="1" parent="WIyWlLk6GJQsqaUBKTNV-1">
          <mxGeometry x="10" y="255" width="220" height="60" as="geometry" />
        </mxCell>
        <mxCell id="NH6wcKdzHSbvaEYoX5p9-11" value="" style="edgeStyle=orthogonalEdgeStyle;rounded=0;orthogonalLoop=1;jettySize=auto;html=1;" edge="1" parent="WIyWlLk6GJQsqaUBKTNV-1" source="NH6wcKdzHSbvaEYoX5p9-12" target="NH6wcKdzHSbvaEYoX5p9-16">
          <mxGeometry relative="1" as="geometry" />
        </mxCell>
        <mxCell id="NH6wcKdzHSbvaEYoX5p9-12" value="&lt;div style=&quot;&quot;&gt;&lt;font style=&quot;font-size: 12px;&quot;&gt;Temp = Head^.Prev&lt;/font&gt;&lt;/div&gt;&lt;div style=&quot;&quot;&gt;&lt;font style=&quot;font-size: 12px;&quot;&gt;&amp;nbsp; &amp;nbsp; Temp^.Next = NewNode&lt;/font&gt;&lt;/div&gt;" style="whiteSpace=wrap;html=1;strokeWidth=2;" vertex="1" parent="WIyWlLk6GJQsqaUBKTNV-1">
          <mxGeometry x="300" y="255" width="220" height="60" as="geometry" />
        </mxCell>
        <mxCell id="NH6wcKdzHSbvaEYoX5p9-13" value="Нет" style="text;html=1;align=center;verticalAlign=middle;whiteSpace=wrap;rounded=0;" vertex="1" parent="WIyWlLk6GJQsqaUBKTNV-1">
          <mxGeometry x="160" y="195" width="220" height="60" as="geometry" />
        </mxCell>
        <mxCell id="NH6wcKdzHSbvaEYoX5p9-14" value="AddToTail&lt;div&gt;Конец&lt;/div&gt;" style="strokeWidth=2;html=1;shape=mxgraph.flowchart.terminator;whiteSpace=wrap;" vertex="1" parent="WIyWlLk6GJQsqaUBKTNV-1">
          <mxGeometry x="30" y="555" width="220" height="60" as="geometry" />
        </mxCell>
        <mxCell id="NH6wcKdzHSbvaEYoX5p9-21" style="edgeStyle=orthogonalEdgeStyle;rounded=0;orthogonalLoop=1;jettySize=auto;html=1;" edge="1" parent="WIyWlLk6GJQsqaUBKTNV-1" source="NH6wcKdzHSbvaEYoX5p9-16">
          <mxGeometry relative="1" as="geometry">
            <mxPoint x="140" y="470" as="targetPoint" />
            <Array as="points">
              <mxPoint x="410" y="430" />
              <mxPoint x="140" y="430" />
            </Array>
          </mxGeometry>
        </mxCell>
        <mxCell id="NH6wcKdzHSbvaEYoX5p9-16" value="&lt;div&gt;&lt;span style=&quot;background-color: initial;&quot;&gt;&amp;nbsp; &amp;nbsp; NewNode^.Prev = Temp&lt;/span&gt;&lt;/div&gt;&lt;div&gt;&lt;div style=&quot;&quot;&gt;&lt;font style=&quot;font-size: 12px;&quot;&gt;&amp;nbsp; &amp;nbsp; NewNode^.Next = Head&lt;/font&gt;&lt;/div&gt;&lt;div style=&quot;&quot;&gt;&lt;font style=&quot;font-size: 12px;&quot;&gt;&amp;nbsp; &amp;nbsp; Head^.Prev = NewNode&lt;/font&gt;&lt;/div&gt;&lt;/div&gt;" style="rounded=0;whiteSpace=wrap;html=1;" vertex="1" parent="WIyWlLk6GJQsqaUBKTNV-1">
          <mxGeometry x="300" y="340" width="220" height="60" as="geometry" />
        </mxCell>
        <mxCell id="NH6wcKdzHSbvaEYoX5p9-22" value="" style="edgeStyle=orthogonalEdgeStyle;rounded=0;orthogonalLoop=1;jettySize=auto;html=1;" edge="1" parent="WIyWlLk6GJQsqaUBKTNV-1" target="NH6wcKdzHSbvaEYoX5p9-14">
          <mxGeometry relative="1" as="geometry">
            <mxPoint x="140" y="530" as="sourcePoint" />
          </mxGeometry>
        </mxCell>
        <mxCell id="NH6wcKdzHSbvaEYoX5p9-23" value="UpdateListVisual" style="shape=process;whiteSpace=wrap;html=1;backgroundOutline=1;" vertex="1" parent="WIyWlLk6GJQsqaUBKTNV-1">
          <mxGeometry x="30" y="470" width="220" height="60" as="geometry" />
        </mxCell>
        <mxCell id="NH6wcKdzHSbvaEYoX5p9-24" value="" style="endArrow=none;dashed=1;html=1;rounded=0;exitX=1;exitY=0.5;exitDx=0;exitDy=0;" edge="1" parent="WIyWlLk6GJQsqaUBKTNV-1" source="NH6wcKdzHSbvaEYoX5p9-23" target="NH6wcKdzHSbvaEYoX5p9-25">
          <mxGeometry width="50" height="50" relative="1" as="geometry">
            <mxPoint x="240" y="520" as="sourcePoint" />
            <mxPoint x="300" y="500" as="targetPoint" />
          </mxGeometry>
        </mxCell>
        <mxCell id="NH6wcKdzHSbvaEYoX5p9-25" value="Процедура перерисовки&amp;nbsp;&lt;div&gt;визуализации списка&lt;/div&gt;" style="strokeWidth=2;html=1;shape=mxgraph.flowchart.annotation_1;align=left;pointerEvents=1;" vertex="1" parent="WIyWlLk6GJQsqaUBKTNV-1">
          <mxGeometry x="300" y="470" width="15" height="60" as="geometry" />
        </mxCell>
      </root>
    </mxGraphModel>
  </diagram>
</mxfile>
